<?xml version="1.0" encoding="utf-8"?>
<!-- Generator: Adobe Illustrator 22.0.1, SVG Export Plug-In . SVG Version: 6.00 Build 0)  -->
<svg xmlns="http://www.w3.org/2000/svg" width="260" height="37" viewBox=" 0 0 260 37">
<style type="text/css">
	.st0{fill:#F39800;}
	.st1{fill:#FFFFFF;}
</style>
<g>
	<rect x="244.5" class="st0" width="15.5" height="15.5"/>
	<g>
		<path class="st1" d="M202.3,18.7c0,2.7-0.8,4.8-3.5,5.6c3.2,0.5,4.3,2.4,4.3,5.3c0,5.3-4,6.7-9.1,6.7h-4.3c-3.5,0-5.1-1.1-5.1-4.5
			V17.1c0-3.5,1.6-4.5,5.1-4.5h4C198,12.6,202.3,13.6,202.3,18.7z M191.1,16.3c-1.3,0-1.6,0.5-1.6,1.6v4.5h3.7
			c2.7,0,3.7-0.8,3.7-2.9c0-2.1-1.1-3.2-3.7-3.2C193.2,16.3,191.1,16.3,191.1,16.3z M197.5,29.4c0-2.1-1.1-2.9-4-2.9h-4.3v4.8
			c0,1.1,0.5,1.3,1.6,1.3h2.4C196.1,32.6,197.5,31.8,197.5,29.4z"/>
		<path class="st1" d="M222.9,16.3h-9.6c-1.3,0-1.6,0.5-1.6,1.6v4.5h11v3.7h-11V31c0,1.1,0.3,1.6,1.6,1.6h9.9v3.7h-11.5
			c-3.5,0-5.1-1.1-5.1-4.5V17.1c0-3.5,1.6-4.5,5.1-4.5h11.2C222.9,12.6,222.9,16.3,222.9,16.3z"/>
		<path class="st1" d="M246.9,24.3c0,9.1-3.7,12.3-12,12.3h-2.7c-3.5,0-5.1-1.1-5.1-4.5v-15c0-3.5,1.6-4.5,5.1-4.5h2.7
			C242.9,12.6,246.9,15.5,246.9,24.3z M241.6,24.3c0-6.1-1.9-8-6.7-8h-1.1c-1.3,0-1.6,0.5-1.6,1.6V31c0,1.1,0.3,1.6,1.6,1.6h1.1
			C239.7,32.6,241.6,30.5,241.6,24.3z"/>
	</g>
	<g>
		<path class="st1" d="M12,29.4c0-1.6-1.3-1.9-2.1-2.4c-1.9-0.5-2.7-0.8-4.8-1.6C1.6,24.3,0,22.7,0,19.5c0-4.5,3.7-6.4,8.6-6.4
			c2.4-0.3,4.8,0.5,7.5,1.6L15,18.4c-2.9-1.1-4.5-1.6-6.1-1.6c-2.7,0-3.7,1.1-3.7,2.7c0,1.1,0.8,1.6,2.1,2.1
			c2.1,0.8,2.9,1.1,4.5,1.6c2.9,1.1,5.3,2.4,5.3,6.1c0,4.3-2.7,6.9-9.1,6.9c-2.7,0-5.3-0.8-8-2.1l1.6-3.7c2.4,1.1,4.3,2.1,6.7,2.1
			C11,32.6,12,31,12,29.4z"/>
		<path class="st1" d="M26.2,35.8h-4.8V13.4h4.8V35.8z"/>
		<path class="st1" d="M40.3,23h6.4c2.7,0,2.7,1.3,2.7,3.5v7.2c-2.1,2.1-5.3,2.7-7.7,2.7c-7.5,0-11.8-4-11.8-11.5s4-12,11.8-12
			c3.2,0,5.1,0.8,7.2,1.6l-1.1,3.5c-2.1-1.1-4-1.6-6.1-1.6c-4.8,0-6.9,3.2-6.9,8c0,4.3,2.1,7.7,6.9,7.7c0.8,0,2.4-0.3,3.2-0.5v-5.3
			h-4.5C40.3,26.2,40.3,23,40.3,23z"/>
		<path class="st1" d="M58.3,13.4l9.9,14.7V13.4h4.8v22.4h-4.8l-9.9-14.4v14.7h-4.8V13.4H58.3z"/>
		<path class="st1" d="M97,35.8h-4.8L90.6,31h-8.8l-1.6,4.8h-4.8l8-22.4H89L97,35.8z M89.5,27.8L86,17.4l-3.2,10.4H89.5z"/>
		<path class="st1" d="M113,17.1h-6.4v18.7h-5.1V17.1h-6.4v-3.7H113V17.1z"/>
		<path class="st1" d="M120.2,13.4v13.9c0,3.7,0.8,5.1,4.3,5.1c3.5,0,4.3-1.6,4.3-5.1V13.4h4.8v14.2c0,6.1-2.9,8.6-9.1,8.6
			c-6.9,0-9.1-3.5-9.1-8.6V13.4H120.2z"/>
		<path class="st1" d="M154.5,20.3c0,3.7-1.3,5.6-4.3,6.4c0.8,0.8,1.3,1.9,2.1,3.2l2.9,5.9h-4.8l-2.1-4.5c-0.8-1.9-1.9-4-3.7-4.3
			h-2.4v8.8h-4.8V17.1c0-3.2,1.3-4.3,4.8-4.3h4.3C152.6,12.8,154.5,15.8,154.5,20.3z M143.5,16.6c-1.3,0-1.6,0.5-1.6,1.3v5.6h3.7
			c2.7,0,3.7-0.8,3.7-3.2s-1.1-3.7-3.7-3.7C145.6,16.6,143.5,16.6,143.5,16.6z"/>
		<path class="st1" d="M173.2,17.1h-9.1c-1.3,0-1.6,0.5-1.6,1.3v4.3h10.4v3.7h-10.4V31c0,1.1,0.3,1.3,1.6,1.3h9.4v3.5h-11
			c-3.2,0-4.8-1.1-4.8-4.3V17.6c0-3.2,1.3-4.3,4.8-4.3h10.7V17.1z"/>
	</g>
</g>
</svg>
